<?xml version="1.0" encoding="UTF-8"?>
<svg version="1.1" xmlns="http://www.w3.org/2000/svg" width="666" height="159">
<path d="M0 0 C-3.71857548 9.72357238 -9.15162219 20.02243495 -17 27 C-23.20244903 29.69458145 -29.87585481 29.22099389 -36.51074219 28.99951172 C-47.08028057 29.00158499 -56.06069445 34.71456295 -63.703125 41.515625 C-73.50675185 51.73203614 -76.54934926 65.57469593 -79 79 C-81.79759321 76.54889297 -83.15884902 73.96990762 -84.7421875 70.625 C-85.25136719 69.55636719 -85.76054688 68.48773438 -86.28515625 67.38671875 C-87.07212891 65.71029297 -87.07212891 65.71029297 -87.875 64 C-88.39191406 62.91332031 -88.90882812 61.82664062 -89.44140625 60.70703125 C-90.97342275 57.47706196 -92.48834635 54.23954121 -94 51 C-94.49113281 49.96294922 -94.98226562 48.92589844 -95.48828125 47.85742188 C-95.94332031 46.88353516 -96.39835937 45.90964844 -96.8671875 44.90625 C-97.27308105 44.04322266 -97.67897461 43.18019531 -98.09716797 42.29101562 C-99.53836995 38.63383895 -99.32138155 36.69986834 -98 33 C-89.82419492 17.06829524 -75.66001963 6.07922433 -59 0 C-40.26728819 -5.70105234 -18.44380634 -8.28530363 0 0 Z M-27 3 C-27.33 4.65 -27.66 6.3 -28 8 C-27.01 8.33 -26.02 8.66 -25 9 C-24.34 8.67 -23.68 8.34 -23 8 C-23.33 6.35 -23.66 4.7 -24 3 C-24.99 3 -25.98 3 -27 3 Z " fill="#EC1F28" transform="translate(177,41)"/>
<path d="M0 0 C0 0.66 0 1.32 0 2 C-1.34191406 2.60134766 -1.34191406 2.60134766 -2.7109375 3.21484375 C-16.44842654 9.58132265 -25.46208075 17.89100032 -32.3046875 31.6171875 C-34.51418062 34.72269627 -36.76800642 35.73139816 -40.1875 37.375 C-53.04569095 44.01839866 -59.56448297 52.65917772 -64.2578125 66.3125 C-65.33381785 70.20877199 -65.68053873 73.97478805 -66 78 C-66.33 78.66 -66.66 79.32 -67 80 C-77.23 80 -87.46 80 -98 80 C-98.50939752 60.30329585 -94.07287029 43.2691125 -81 28 C-80.52691406 27.37351562 -80.05382812 26.74703125 -79.56640625 26.1015625 C-68.07804455 11.6050263 -48.59662694 2.15536166 -30.54589844 -0.71582031 C-20.96635177 -1.78511378 -9.35570548 -2.69378159 0 0 Z " fill="#000000" transform="translate(106,43)"/>
<path d="M0 0 C6.6 0 13.2 0 20 0 C20 1.98 20 3.96 20 6 C30.41721297 5.64380567 30.41721297 5.64380567 40 2 C40.33 1.34 40.66 0.68 41 0 C43.58361518 -0.05407567 46.16609255 -0.093707 48.75 -0.125 C49.84441406 -0.15013672 49.84441406 -0.15013672 50.9609375 -0.17578125 C54.8044624 -0.21072239 57.74606772 -0.17499684 61 2 C57.13037381 6.91853586 53.29841762 10.63754267 48 14 C47.34 14 46.68 14 46 14 C46.93005859 15.09828125 46.93005859 15.09828125 47.87890625 16.21875 C54.29894105 24.00016235 59.84223344 32.19553551 65.1875 40.75 C65.85918213 41.82185547 66.53086426 42.89371094 67.22290039 43.99804688 C72 51.73458169 72 51.73458169 72 54 C64.42446929 55.6043578 56.37552685 56.89193134 49 54 C42.65050919 47.96999625 39.24421681 39.69266249 35.49951172 31.91357422 C33.5562572 28.13780096 31.56089586 24.42498451 28 22 C25.36 21.34 22.72 20.68 20 20 C20 31.22 20 42.44 20 54 C13.4 54 6.8 54 0 54 C0 36.18 0 18.36 0 0 Z " fill="#000000" transform="translate(358,69)"/>
<path d="M0 0 C11.88 0 23.76 0 36 0 C35 5 35 5 33 8 C33.28994291 12.55752787 34.65366723 15.57236668 37.09765625 19.37890625 C37.7311499 20.37704346 38.36464355 21.37518066 39.01733398 22.40356445 C39.69223877 23.44601318 40.36714355 24.48846191 41.0625 25.5625 C42.42975503 27.71349875 43.79694305 29.86454008 45.1640625 32.015625 C46.44231347 34.01066971 47.72092336 36.00548454 49 38 C50.65678163 40.59746903 52.302582 43.2012322 53.9375 45.8125 C54.54464844 46.76769531 55.15179687 47.72289062 55.77734375 48.70703125 C57 51 57 51 57 54 C49.41 54 41.82 54 34 54 C28.44329317 44.08803646 22.96797572 34.2196443 18 24 C17.66266846 24.62455078 17.32533691 25.24910156 16.9777832 25.89257812 C15.42535757 28.76317115 13.86895823 31.63159163 12.3125 34.5 C11.78205078 35.48226562 11.25160156 36.46453125 10.70507812 37.4765625 C9.64948462 39.41937262 8.57837198 41.35383577 7.49145508 43.27929688 C5.99076234 45.92379497 5.99076234 45.92379497 4.9050293 48.48632812 C3.79273382 50.79331135 2.94013384 52.32135615 1 54 C-2.98190264 54.96290132 -6.74658382 54.75831111 -10.8125 54.5 C-11.88693359 54.46390625 -12.96136719 54.4278125 -14.06835938 54.390625 C-16.71588793 54.29649065 -19.35611006 54.16518356 -22 54 C-21.38248768 51.02216337 -20.43729608 48.78544676 -18.84765625 46.19921875 C-18.18455444 45.1150769 -18.18455444 45.1150769 -17.50805664 44.0090332 C-17.03102295 43.24292725 -16.55398926 42.47682129 -16.0625 41.6875 C-15.57322021 40.8936792 -15.08394043 40.0998584 -14.57983398 39.28198242 C-10.96140716 33.44883386 -7.21959641 27.70533081 -3.34985352 22.03588867 C-2.21630161 20.36864764 -1.10782431 18.68444587 0 17 C0.40718262 16.39043457 0.81436523 15.78086914 1.23388672 15.15283203 C2.56244732 13.11658995 2.56244732 13.11658995 4 10 C3.65865961 7.83964632 3.65865961 7.83964632 2.25 6.25 C0 3 0 3 0 0 Z " fill="#000000" transform="translate(601,69)"/>
<path d="M0 0 C6.27 0 12.54 0 19 0 C18.95875 1.629375 18.9175 3.25875 18.875 4.9375 C18.92438279 14.57948971 20.71667402 21.48110392 27 29 C31.53570341 33.03173636 36.02101648 34.27129768 42 34 C47.32763097 32.31291686 52.197275 29.99847189 55.16015625 25.0703125 C58.11165189 19.29426727 59.21714242 14.28650215 59.5625 7.8125 C59.706875 5.234375 59.85125 2.65625 60 0 C65.94 0 71.88 0 78 0 C81.13076192 9.39228577 78.53655819 20.08926628 74.74609375 28.921875 C69.57863561 39.11598861 62.71712104 45.88315879 52 50 C42.56013816 52.99007232 32.41677231 53.21323999 23.41796875 48.70703125 C12.00591178 42.05142381 4.67789184 34.28886201 0.6796875 21.55078125 C-0.69158321 14.38707392 -0.22039092 7.2729002 0 0 Z " fill="#000000" transform="translate(267,71)"/>
<path d="M0 0 C0.74886475 0.00523682 1.49772949 0.01047363 2.26928711 0.01586914 C3.07817383 0.0190918 3.88706055 0.02231445 4.72045898 0.02563477 C5.5705957 0.03401367 6.42073242 0.04239258 7.29663086 0.05102539 C8.15063477 0.05553711 9.00463867 0.06004883 9.88452148 0.06469727 C12.00108749 0.07652166 14.11761771 0.0944577 16.23413086 0.11352539 C16.23799805 1.63719727 16.23799805 1.63719727 16.24194336 3.19165039 C16.43461209 12.54349436 17.48851645 20.33638137 23.23413086 28.11352539 C27.89044297 32.56822399 32.87872765 34.11352539 39.23413086 34.11352539 C45.14894934 32.27789207 50.37646315 29.42064721 53.46069336 23.92993164 C56.22871878 17.86616373 57.36366201 13.06664045 57.29663086 6.36352539 C57.27600586 4.30102539 57.25538086 2.23852539 57.23413086 0.11352539 C63.50413086 0.11352539 69.77413086 0.11352539 76.23413086 0.11352539 C76.80859926 16.62949199 74.44270204 29.2995391 62.98413086 41.86352539 C55.58039535 48.89218179 46.39462975 51.4974755 36.48413086 52.48852539 C27.07185208 52.18733247 18.02035528 48.56765797 11.23413086 42.11352539 C10.2015918 41.14092773 10.2015918 41.14092773 9.14819336 40.14868164 C0.47497931 31.23364936 -2.96163726 20.60640946 -2.89086914 8.36352539 C-2.89473633 7.6790332 -2.89860352 6.99454102 -2.90258789 6.28930664 C-2.89050179 0.18582654 -2.89050179 0.18582654 0 0 Z " fill="#000000" transform="translate(499.765869140625,70.886474609375)"/>
<path d="M0 0 C9.72004836 7.68366673 12.65112269 18.95483218 14.99609375 30.6796875 C14.99609375 35.6296875 14.99609375 40.5796875 14.99609375 45.6796875 C4.10609375 45.6796875 -6.78390625 45.6796875 -18.00390625 45.6796875 C-18.99390625 40.3996875 -19.98390625 35.1196875 -21.00390625 29.6796875 C-25.3998668 19.1498285 -31.02939612 11.69102354 -40.00390625 4.6796875 C-40.00390625 4.0196875 -40.00390625 3.3596875 -40.00390625 2.6796875 C-27.61011694 -6.49720277 -13.23565817 -8.7205701 0 0 Z " fill="#000000" transform="translate(157.00390625,77.3203125)"/>
<path d="M0 0 C4.970625 -0.04125 9.94125 -0.0825 15.0625 -0.125 C17.36359741 -0.15231201 17.36359741 -0.15231201 19.71118164 -0.18017578 C47.3920426 -0.28974696 47.3920426 -0.28974696 55 6 C61.64789279 13.09337014 62 22.74228447 62 32 C55.07 32 48.14 32 41 32 C40.67 28.7 40.34 25.4 40 22 C37.35362196 18.11764879 35.79259972 17.19465921 31.23046875 16.07421875 C29.88555508 15.91929487 28.53701218 15.7952546 27.1875 15.6875 C23.6296875 15.3471875 23.6296875 15.3471875 20 15 C20 20.61 20 26.22 20 32 C13.4 32 6.8 32 0 32 C0 21.44 0 10.88 0 0 Z " fill="#EC1F28" transform="translate(358,36)"/>
<path d="M0 0 C22.44 0 44.88 0 68 0 C68 5.61 68 11.22 68 17 C60.08 17 52.16 17 44 17 C44 21.95 44 26.9 44 32 C37.4 32 30.8 32 24 32 C24 27.05 24 22.1 24 17 C16.08 17 8.16 17 0 17 C0 11.39 0 5.78 0 0 Z " fill="#EC1F28" transform="translate(426,36)"/>
<path d="M0 0 C22.44 0 44.88 0 68 0 C68 5.61 68 11.22 68 17 C60.08 17 52.16 17 44 17 C44 21.95 44 26.9 44 32 C37.4 32 30.8 32 24 32 C24 27.05 24 22.1 24 17 C16.08 17 8.16 17 0 17 C0 11.39 0 5.78 0 0 Z " fill="#EC1F28" transform="translate(193,36)"/>
<path d="M0 0 C7.92 0 15.84 0 24 0 C28.66666667 9.33333333 33.33333333 18.66666667 38 28 C40.41747491 24.94568046 42.29439322 21.78865421 44.13671875 18.359375 C44.71357422 17.28945313 45.29042969 16.21953125 45.88476562 15.1171875 C46.77711914 13.45042969 46.77711914 13.45042969 47.6875 11.75 C48.29400391 10.62335937 48.90050781 9.49671875 49.52539062 8.3359375 C51.01983717 5.55885572 52.51030379 2.77963287 54 0 C61.59 0 69.18 0 77 0 C71.37207457 11.25585085 71.37207457 11.25585085 68.703125 15.53515625 C68.13722656 16.44587891 67.57132813 17.35660156 66.98828125 18.29492188 C66.41464844 19.20822266 65.84101562 20.12152344 65.25 21.0625 C64.66089844 22.01060547 64.07179688 22.95871094 63.46484375 23.93554688 C59.15691964 30.84308036 59.15691964 30.84308036 58 32 C52.43049878 32.48689 46.86212385 32.65651582 41.27416992 32.78955078 C39.39465158 32.84616765 37.51570942 32.92790346 35.63842773 33.03564453 C23.25002705 33.73342855 23.25002705 33.73342855 18 32 C13.89773789 28.23464707 12.08663809 24.09432988 10 19 C9.04309702 17.34138869 8.05701846 15.69895854 7.03125 14.08203125 C6.18624184 12.65960084 5.34244762 11.23644841 4.5 9.8125 C4.05914063 9.07708984 3.61828125 8.34167969 3.1640625 7.58398438 C0 2.23357434 0 2.23357434 0 0 Z " fill="#EC1F28" transform="translate(581,36)"/>
<path d="M0 0 C5.40067837 4.87004403 8.68808848 10.8583707 11.2890625 17.61328125 C11.2890625 18.93328125 11.2890625 20.25328125 11.2890625 21.61328125 C8.22278544 21.82993674 5.17179012 21.98787443 2.1015625 22.11328125 C0.80508789 22.21382812 0.80508789 22.21382812 -0.51757812 22.31640625 C-3.13304923 22.39657395 -5.19858098 22.36054771 -7.7109375 21.61328125 C-9.47900273 19.73492944 -10.52695917 17.95403918 -11.63867188 15.63256836 C-13.76896405 11.62080911 -17.40632727 9.358346 -21.65625 7.984375 C-26.84956959 7.01699194 -31.12728577 8.06023652 -35.7109375 10.61328125 C-38.75852929 13.17602889 -40.49669994 15.17332912 -42.2421875 18.7578125 C-44.7109375 21.61328125 -44.7109375 21.61328125 -46.81347656 22.09790039 C-49.386359 22.20454704 -51.89025779 22.13637063 -54.4609375 21.98828125 C-55.34910156 21.96121094 -56.23726563 21.93414062 -57.15234375 21.90625 C-59.34102145 21.83564749 -61.52473318 21.73713652 -63.7109375 21.61328125 C-62.68419361 11.97132996 -57.89856609 4.94740891 -50.90625 -1.6328125 C-35.10285286 -14.25865826 -15.18871203 -12.31048578 0 0 Z " fill="#EC1F28" transform="translate(562.7109375,46.38671875)"/>
<path d="M0 0 C6.23710564 5.57702319 9.96414804 11.71315252 12.80859375 19.6171875 C12.80859375 20.6071875 12.80859375 21.5971875 12.80859375 22.6171875 C-0.53101699 23.8165531 -0.53101699 23.8165531 -6.19140625 22.6171875 C-8.91622899 20.31488474 -10.04984339 18.2657036 -11.6640625 15.11328125 C-13.94978229 11.37779545 -16.70958457 10.39975178 -20.77734375 9.109375 C-26.86225448 7.86876213 -31.06338516 9.7832167 -36.19921875 12.77734375 C-38.29764104 14.71529846 -39.02124688 16.24509732 -40.2890625 18.76953125 C-41.84200506 21.36261315 -42.52212914 22.42614009 -45.46386719 23.26586914 C-48.18350488 23.40502889 -50.78834733 23.31677628 -53.50390625 23.1171875 C-54.43525391 23.08109375 -55.36660156 23.045 -56.32617188 23.0078125 C-58.61882432 22.91375496 -60.90297716 22.78257779 -63.19140625 22.6171875 C-59.54596375 10.85061526 -53.53312573 0.79200719 -42.37890625 -5.1953125 C-27.81018155 -11.86347501 -12.5269671 -10.13247641 0 0 Z " fill="#EC1F28" transform="translate(331.19140625,45.3828125)"/>
<path d="M0 0 C6.6 0 13.2 0 20 0 C20 17.82 20 35.64 20 54 C13.4 54 6.8 54 0 54 C0 36.18 0 18.36 0 0 Z " fill="#000000" transform="translate(450,69)"/>
<path d="M0 0 C6.6 0 13.2 0 20 0 C20 17.82 20 35.64 20 54 C13.4 54 6.8 54 0 54 C0 36.18 0 18.36 0 0 Z " fill="#000000" transform="translate(217,69)"/>
</svg>
